<?xml version="1.0" standalone="no"?>
<!DOCTYPE svg PUBLIC "-//W3C//DTD SVG 20010904//EN"
 "http://www.w3.org/TR/2001/REC-SVG-20010904/DTD/svg10.dtd">
<svg version="1.0" xmlns="http://www.w3.org/2000/svg"
 width="203.000000pt" height="203.000000pt" viewBox="0 0 203.000000 203.000000"
 preserveAspectRatio="xMidYMid meet">
<metadata>
Created by potrace 1.11, written by Peter Selinger 2001-2013
</metadata>
<g transform="translate(0.000000,203.000000) scale(0.100000,-0.100000)"
fill="#000000" stroke="none">
<path d="M926 1853 c-126 -21 -217 -57 -235 -92 -6 -10 -11 -34 -13 -52 -2
-38 -23 -69 -48 -69 -20 0 -98 -49 -127 -81 -32 -35 -50 -86 -53 -154 -6 -122
-6 -141 2 -185 11 -70 18 -104 23 -117 2 -7 -2 -13 -9 -13 -7 0 -25 -9 -39
-20 -25 -20 -25 -22 -26 -173 -2 -181 4 -195 81 -204 35 -4 45 -9 44 -21 -9
-59 79 -246 148 -318 6 -6 32 -40 57 -75 35 -50 58 -70 102 -92 120 -58 198
-58 317 1 49 24 65 42 148 157 117 163 131 193 134 278 2 37 8 67 13 68 6 0
22 2 37 3 15 1 36 10 47 20 20 18 21 30 21 176 0 143 -2 158 -20 178 -12 12
-28 22 -36 22 -10 0 -13 6 -10 18 3 9 7 28 10 42 2 14 8 43 13 65 4 22 6 83 3
135 -4 69 -1 113 11 160 18 69 16 124 -4 148 -22 27 -191 155 -222 167 -77 33
-262 47 -369 28z"/>
</g>
</svg>
